# xmcd CD database file
#
# Track frame offsets:
#	150
#	13389
#	28090
#	43089
#	58505
#	71629
#	85828
#	99909
#	115494
#	129016
#	143454
#	157583
#	171173
#	185145
#	199677
#	213161
#	227845
#	241177
#	256110
#	269284
#	282480
#
# Disc length: 3934 seconds
#
# Revision: 0
# Processed by: cddbd v1.5.2PL0 Copyright (c) Steve Scherf et al.
# Submitted via: CDex 1.70beta2
#
DISCID=200f5c15
DTITLE=Hodges - Giants of Jazz 1
DYEAR=1900
DGENRE=Jazz
TTITLE0=Tishomingo Blues: Duke Ellington and His Orchestra
TTITLE1=The Blues with a Feelin’: Duke Ellington and His Orchestra
TTITLE2=Flaming Youth: Duke Ellington and His Cotton Club Orchestra 
TTITLE3=Rent Party Blues: The Jungle Band
TTITLE4=Cotton Club Stomp: Duke Ellington and His Cotton Club Orchestra 
TTITLE5=When You’re Smiling: The Jungle Band
TTITLE6=Old Man Blues: The Harlem Footwarmers
TTITLE7=Echoes of the Jungle: Duke Ellington and His Cotton Club Orchestra
TTITLE8=The Sheik of Araby: Duke Ellington and His Famous Orchestra 
TTITLE9=Bundle of Blues (Dragon Blues): Duke Ellington and His Famous Orchestra 
TTITLE10=Tough Truckin’: Duke Ellington’s Sextet
TTITLE11=Sugar Plum: Teddy Wilson and His Orchestra
TTITLE12=Why Do I Lie to Myself about You?: Teddy Wilson and His Orchestra 
TTITLE13=I Cried for You: Teddy Wilson and His Orchestra
TTITLE14=In a Jam: Duke Ellington and His Orchestra
TTITLE15=On the Sunny Side of the Street: Lionel Hampton and His Orchestra 
TTITLE16=I Know That You Know: Lionel Hampton and His Orchestra
TTITLE17=Blue Reverie: 1938 Carnegie Hall Jazz Concert 
TTITLE18=The Gal from Joe’s: Duke Ellington and His Famous Orchestra 
TTITLE19=Jeep’s Blues: Johnny Hodges and His Orchestra
TTITLE20=Jungle Love: Teddy Wilson and His Orchestra
EXTD=
EXTT0=
EXTT1=
EXTT2=
EXTT3=
EXTT4=
EXTT5=
EXTT6=
EXTT7=
EXTT8=
EXTT9=
EXTT10=
EXTT11=
EXTT12=
EXTT13=
EXTT14=
EXTT15=
EXTT16=
EXTT17=
EXTT18=
EXTT19=
EXTT20=
PLAYORDER=
